<?xml version="1.0" encoding="utf-8"?>
<!-- Generator: Adobe Adobe Illustrator 24.2.0, SVG Export Plug-In . SVG Version: 6.00 Build 0)  -->
<svg version="1.1" id="Layer_1" xmlns="http://www.w3.org/2000/svg" xmlns:xlink="http://www.w3.org/1999/xlink" x="0px" y="0px"
	 width="528.05px" height="172.55px" viewBox="0 0 528.05 172.55" style="enable-background:new 0 0 528.05 172.55;"
	 xml:space="preserve">
<style type="text/css">
	.st0{fill:#4A151F;}
	.st1{fill:#D1821C;}
	.st2{fill:#F5F3F2;}
	.st3{fill:#E7E7E7;}
	.st4{fill:#FFFFFF;}
	.st5{opacity:0.0392;fill:#49141F;}
	.st6{fill:none;stroke:#D1821C;}
	.st7{fill:none;stroke:#D1821C;stroke-width:2;stroke-linecap:round;stroke-linejoin:round;}
	.st8{fill:none;stroke:#D18119;}
	.st9{fill:none;stroke:#D18119;stroke-width:2;stroke-linecap:round;stroke-linejoin:round;}
	.st10{fill:#D18119;}
	.st11{fill:#CF2415;}
	.st12{fill:#4A161F;}
	.st13{fill:#262622;}
	.st14{fill:#A11C0A;}
	.st15{fill:none;stroke:#D1821D;stroke-width:2;stroke-miterlimit:10;}
	.st16{font-family:'Futura-Medium';}
	.st17{font-size:117.3763px;}
	.st18{font-size:32.6704px;}
	.st19{letter-spacing:2.94;}
</style>
<g>
	<g>
		<path class="st10" d="M119.79,122.11l-4.62-4.62l0,0l0,0l0,0l-2.28-2.28c-1.55,2.5-6.18,7.63-8.35,9.8
			c-1.23,1.23-2.53,2.37-3.88,3.4c-3.64,2.8-7.66,4.87-11.87,6.21c-3.86,1.23-7.87,1.84-11.89,1.84c-4.19,0-8.37-0.67-12.39-2.01h0
			c-3.68-1.22-7.2-3-10.45-5.36l0,0l0,0h0c-1.68-1.2-3.28-2.57-4.8-4.08c-2.07-2.07-6.44-6.9-7.94-9.27l-2.39,2.38l-4.62,4.62
			l-3.86,3.85c1.91,2.89,6.72,8.21,9.26,10.75c1.02,1.02,2.08,2,3.16,2.92c5.8,4.93,12.41,8.4,19.36,10.4h0
			c3.67,1.07,7.42,1.72,11.2,1.96c1.15,0.08,2.3,0.12,3.45,0.12c1.03,0,2.06-0.03,3.09-0.09c0.84-0.04,1.68-0.12,2.52-0.21
			c2.89-0.3,5.76-0.86,8.57-1.65c7.02-1.95,13.71-5.39,19.57-10.32c0.37-0.31,0.75-0.63,1.11-0.96l5.43-5.58
			c1.38-1.64,5.41-6.11,6.55-7.87L119.79,122.11z"/>
	</g>
	<path class="st10" d="M77.13,85.92L61.04,69.83L61,69.78l0,0l0.04,0.04L77.13,85.92l5.85-5.84L77.13,85.92z M92.99,70.07
		L92.99,70.07l10.62,10.62L92.99,70.07z M77.13,85.92L61.04,69.83L61,69.78l0,0l0.04,0.04L77.13,85.92l5.85-5.84L77.13,85.92z
		 M92.99,70.07L92.99,70.07l10.62,10.62L92.99,70.07z M77.13,85.92L61.04,69.83L61,69.78l0,0l0.04,0.04L77.13,85.92l5.85-5.84
		L77.13,85.92z M92.99,70.07L92.99,70.07l10.62,10.62L92.99,70.07z M77.13,85.92L61.04,69.83L61,69.78l0,0l0.04,0.04L77.13,85.92
		l5.85-5.84L77.13,85.92z M129.9,95.28c-0.33-2.97-0.92-5.92-1.75-8.82c-2.04-7.08-5.56-13.82-10.59-19.72
		c-0.88-1.03-1.8-2.04-2.76-3.01L76.84,25.78l-4.7,4.69l-4.7,4.7l-4.69,4.69l0,0.01l-10,10l-5.84,5.84l-7.82,7.82
		c-0.19,0.19-0.38,0.38-0.57,0.57c-0.56,0.58-1.1,1.17-1.64,1.77c-5.42,6.11-9.2,13.16-11.34,20.58
		c-0.87,2.99-1.46,10.15-1.79,13.23c-0.07,0.61-0.12,1.22-0.16,1.83l13.2-13.08c0.21-0.37,0.1-1.49,0.82-3.53
		c0.85-2.42,2.18-4.65,3.9-6.57c2.42-2.68,5.8-6.43,7.02-7.7c0.08-0.09,0.17-0.17,0.24-0.25l6.41-6.41l5.84-5.84l10-10l0-0.01
		l5.8-5.8l5.81,5.81l10.52,10.53l5.61,5.6l6.12,6.12c0.43,0.56,0.95,1.18,1.47,1.8c0.87,1.03,3.06,3.89,5.01,6.48
		c2.09,2.76,3.64,5.9,4.47,9.26c0.06,0.26,0.12,0.44,0.16,0.51l14.06,13.53C130.03,101.32,129.97,95.92,129.9,95.28z M116.17,93.16
		C116.17,93.17,116.17,93.17,116.17,93.16c0,0.04,0.01,0.08,0.01,0.11L103.6,80.69L92.99,70.07h0l-10,10l-5.85,5.84L61.04,69.83
		L61,69.78l0,0L50.9,79.88l0.02,0.02l-27.14,27.15c0,0.01,0,0.02,0,0.04c0.07,0.73,0.17,1.45,0.28,2.18
		c0.02,0.13,0.04,0.27,0.06,0.41c0.14,0.92,0.31,1.84,0.51,2.74c0.05,0.27,0.11,0.54,0.18,0.82c0.02,0.12,0.05,0.24,0.08,0.37
		c0.04,0.2,0.09,0.4,0.14,0.6c0.06,0.27,0.13,0.54,0.21,0.82c0.1,0.37,0.2,0.75,0.31,1.12v0c0.73,2.5,1.64,4.97,2.74,7.37l2.32-2.32
		l4.7-4.7l4.31-4.31l0.38-0.38l21.42-21.42l0.12,0.12l5.49,5.49h0l10.62,10.62l10.09-10.09h0l5.84-5.84h0l13.49,13.5l6.95,6.94
		l0.31,0.31l4.39,4.38l4.69,4.7l2.29,2.29c0,0,0,0,0-0.01c0-0.01,0.01-0.02,0.01-0.03c1.02-2.31,1.87-4.68,2.53-7.09v0
		c0.79-2.84,1.35-5.74,1.66-8.66V107c0.01-0.02,0.01-0.05,0.01-0.07c0,0,0,0,0-0.01L116.17,93.16z M77.13,85.92L61.04,69.83
		L61,69.78l0,0l0.04,0.04L77.13,85.92l5.85-5.84L77.13,85.92z M92.99,70.07L92.99,70.07l10.62,10.62L92.99,70.07z M77.13,85.92
		L61.04,69.83L61,69.78l0,0l0.04,0.04L77.13,85.92l5.85-5.84L77.13,85.92z M92.99,70.07L92.99,70.07l10.62,10.62L92.99,70.07z
		 M77.13,85.92L61.04,69.83L61,69.78l0,0l0.04,0.04L77.13,85.92l5.85-5.84L77.13,85.92z M77.13,85.92L61.04,69.83L61,69.78l0,0
		l0.04,0.04L77.13,85.92l5.85-5.84L77.13,85.92z"/>
	<path class="st11" d="M87.37,65.51L76.85,54.98L66.83,64.99"/>
	<polygon class="st12" points="61.04,69.83 57.02,73.84 50.94,79.93 50.88,79.86 60.97,69.77 60.99,69.79 	"/>
	<rect x="64.83" y="101.33" class="st12" width="15.02" height="0"/>
	<path class="st12" d="M129.93,106.92C129.93,106.92,129.93,106.92,129.93,106.92c0,0.03,0,0.06-0.01,0.08v0.01
		c-0.31,2.92-0.86,5.82-1.66,8.66v0c-0.67,2.41-1.52,4.78-2.53,7.09c0,0.01-0.01,0.02-0.01,0.03L93.6,90.7l-15.95,15.95v0
		L67.03,96.02h0l-5.49-5.49l-0.12-0.12L40,111.83l-0.38,0.38l-4.31,4.31l-7.01,7.01c-1.1-2.4-2.01-4.87-2.74-7.37v0
		c-0.11-0.37-0.21-0.75-0.31-1.12c-0.07-0.27-0.14-0.54-0.21-0.82c-0.05-0.2-0.1-0.4-0.14-0.6c-0.03-0.12-0.06-0.24-0.08-0.37
		c-0.06-0.27-0.12-0.54-0.18-0.82c-0.2-0.91-0.37-1.83-0.51-2.74c-0.02-0.14-0.04-0.28-0.06-0.41c-0.11-0.72-0.2-1.45-0.28-2.18
		l33.25-33.25l4.01-4.01l16.09,16.09l15.85-15.85h0l0.04-0.05L129.93,106.92z"/>
	<path class="st12" d="M57.02,73.84l-33.25,33.25c0-0.01,0-0.02,0-0.04L50.92,79.9L57,73.82L57.02,73.84z"/>
	<path class="st13" d="M125.73,122.77c0,0.01-0.01,0.02-0.01,0.03c0,0,0,0,0,0.01l-2.29-2.29l-4.69-4.7l-4.39-4.38l-0.31-0.31
		l-6.95-6.94l0.01,0l0.02-0.03L125.73,122.77z"/>
	<path class="st14" d="M129.93,106.92C129.93,106.92,129.93,106.92,129.93,106.92l-13.76-13.75l-14.08-14.08l0,0l14.08,14.08
		L129.93,106.92z"/>
	<path class="st12" d="M61.04,69.83L61.04,69.83l-4.02,4.02l-33.25,33.25c0-0.01,0-0.02,0-0.04L50.92,79.9l-0.04-0.04l10.09-10.09
		l0.02,0.02l0,0L61.04,69.83z"/>
	<text transform="matrix(1.02 0 0 0.97 148.9654 114.6081)" class="st12 st16 st17">Aegan</text>
	<text transform="matrix(1.02 0 0 0.97 381.5504 149.0617)" class="st10 st16 st18 st19">MEDIA</text>
</g>
</svg>

